{"title":"Fingerprints (2006) UNRATED DVDrip x264 Dual Audio [Eng-Hindi] X","uid":10523883,"size":832034990,"categoryP":"video","categoryS":"movies","magnet":"?xt=urn:btih:d42a2bec1fd90729adeffcb056b65297881f2887&amp;dn=Fingerprints+%282006%29+UNRATED+DVDrip+x264+Dual+Audio+%5BEng-Hindi%5D+X&amp;tr=udp%3A%2F%2Ftracker.openbittorrent.com%3A80&amp;tr=udp%3A%2F%2Fopen.demonii.com%3A1337&amp;tr=udp%3A%2F%2Ftracker.coppersurfer.tk%3A6969&amp;tr=udp%3A%2F%2Fexodus.desync.com%3A6969","seeders":4,"leechers":0,"uploader":"Xdesiars","files":3,"time":1405020938,"description":"Format                                   : Matroska\nFormat version                           : Version 2\nFile size                                : 785 MiB\nDuration                                 : 1h 35mn\nOverall bit rate                         : 1 148 Kbps\nMovie name                               : Fingerprints (2006) by XdesiArsenal [ExD-XMR]\nEncoded date                             : UTC 2014-07-09 18:43:47\nWriting application                      : mkvmerge v5.0.1 ('Es ist Sommer') built on Nov 23 2011 20:48:57\nWriting library                          : libebml v1.2.2 + libmatroska v1.3.0\n\nVideo\nID                                       : 1\nFormat                                   : MPEG-4 Visual\nFormat profile                           : Simple@L0\nFormat settings, BVOP                    : No\nFormat settings, QPel                    : No\nFormat settings, GMC                     : No warppoints\nFormat settings, Matrix                  : Default (H.263)\nCodec ID                                 : V_MS/VFW/FOURCC / XVID\nCodec ID/Hint                            : XviD\nDuration                                 : 1h 35mn\nBit rate                                 : 869 Kbps\nWidth                                    : 608 pixels\nHeight                                   : 352 pixels\nDisplay aspect ratio                     : 1.727\nFrame rate mode                          : Constant\nFrame rate                               : 23.976 fps\nColor space                              : YUV\nChroma subsampling                       : 4:2:0\nBit depth                                : 8 bits\nScan type                                : Progressive\nCompression mode                         : Lossy\nBits/(Pixel*Frame)                       : 0.169\nStream size                              : 594 MiB (76%)\nTitle                                    : Fingerprints (2006) by XdesiArsenal [ExD-XMR]\nWriting library                          : XviD 1.0.3 (UTC 2004-12-20)\nDefault                                  : No\nForced                                   : No\n\nAudio #1\nID                                       : 2\nFormat                                   : AC-3\nFormat/Info                              : Audio Coding 3\nMode extension                           : CM (complete main)\nFormat settings, Endianness              : Big\nMuxing mode                              : Header stripping\nCodec ID                                 : A_AC3\nDuration                                 : 1h 35mn\nBit rate mode                            : Constant\nBit rate                                 : 128 Kbps\nChannel(s)                               : 2 channels\nChannel positions                        : Front: L R\nSampling rate                            : 48.0 KHz\nBit depth                                : 16 bits\nCompression mode                         : Lossy\nDelay relative to video                  : 2s 0ms\nStream size                              : 87.5 MiB (11%)\nTitle                                    : XdesiArsenal\nLanguage                                 : Hindi\nDefault                                  : No\nForced                                   : No\n\nAudio #2\nID                                       : 3\nFormat                                   : AC-3\nFormat/Info                              : Audio Coding 3\nMode extension                           : CM (complete main)\nFormat settings, Endianness              : Big\nMuxing mode                              : Header stripping\nCodec ID                                 : A_AC3\nDuration                                 : 1h 35mn\nBit rate mode                            : Constant\nBit rate                                 : 128 Kbps\nChannel(s)                               : 2 channels\nChannel positions                        : Front: L R\nSampling rate                            : 48.0 KHz\nBit depth                                : 16 bits\nCompression mode                         : Lossy\nStream size                              : 87.5 MiB (11%)\nTitle                                    : XdesiArsenal\nLanguage                                 : English\nDefault                                  : No\nForced                                   : No\n","torrent":{"xt":"urn:btih:d42a2bec1fd90729adeffcb056b65297881f2887","amp;dn":"Fingerprints+%282006%29+UNRATED+DVDrip+x264+Dual+Audio+%5BEng-Hindi%5D+X","amp;tr":["udp%3A%2F%2Ftracker.openbittorrent.com%3A80","udp%3A%2F%2Fopen.demonii.com%3A1337","udp%3A%2F%2Ftracker.coppersurfer.tk%3A6969","udp%3A%2F%2Fexodus.desync.com%3A6969"],"infoHash":"d42a2bec1fd90729adeffcb056b65297881f2887","infoHashBuffer":{"type":"Buffer","data":[212,42,43,236,31,217,7,41,173,239,252,176,86,182,82,151,136,31,40,135]},"announce":[],"urlList":[]}}